<svg width="62" height="36" viewBox="0 0 62 36" fill="none" xmlns="http://www.w3.org/2000/svg">
<path fill-rule="evenodd" clip-rule="evenodd" d="M29.6655 0.374512C29.8553 0.137768 30.1424 0 30.4458 0H60.1133C60.9156 0 61.3913 0.897378 60.9409 1.56137L54.8002 10.614C54.6141 10.8883 54.3041 11.0526 53.9726 11.0526H23.1886C22.3496 11.0526 21.8836 10.0817 22.4084 9.42715L29.6655 0.374512ZM8.37225 13.6047C8.56213 13.3876 8.83646 13.2632 9.12482 13.2632H52.2129C53.0461 13.2632 53.5139 14.2223 53.0009 14.8788L45.9286 23.9314C45.7391 24.174 45.4484 24.3158 45.1405 24.3158H33.1579C32.6056 24.3158 32.1579 24.7635 32.1579 25.3158V34.3684C32.1579 34.9207 31.7102 35.3684 31.1579 35.3684H22.1053C21.553 35.3684 21.1053 34.9207 21.1053 34.3684V25.3158C21.1053 24.7635 20.6575 24.3158 20.1053 24.3158H1.20377C0.344609 24.3158 -0.11457 23.3039 0.45119 22.6573L8.37225 13.6047Z" fill="#F2F1F2"/>
</svg>
